<svg width="239" height="167" viewBox="0 0 239 167" fill="none" xmlns="http://www.w3.org/2000/svg">
<path d="M0 148.375C0 158.205 8.92101 166.18 19.9167 166.18H219.083C230.079 166.18 239 158.205 239 148.375V83.0898H0V148.375ZM79.6667 123.151C79.6667 120.703 81.9073 118.7 84.6458 118.7H141.076C143.815 118.7 146.056 120.703 146.056 123.151V137.988C146.056 140.437 143.815 142.44 141.076 142.44H84.6458C81.9073 142.44 79.6667 140.437 79.6667 137.988V123.151ZM26.5556 123.151C26.5556 120.703 28.7962 118.7 31.5347 118.7H61.4097C64.1483 118.7 66.3889 120.703 66.3889 123.151V137.988C66.3889 140.437 64.1483 142.44 61.4097 142.44H31.5347C28.7962 142.44 26.5556 140.437 26.5556 137.988V123.151ZM239 17.805V35.6099H0V17.805C0 7.97514 8.92101 0 19.9167 0H219.083C230.079 0 239 7.97514 239 17.805Z" fill="#0254B5"/>
</svg>
