<svg width="41" height="37" viewBox="0 0 41 37" fill="none" xmlns="http://www.w3.org/2000/svg">
<path d="M19.2938 10.4279L23.1567 11.4613C23.2879 11.4925 23.4053 11.5667 23.4906 11.6726C23.5759 11.7784 23.6244 11.91 23.6286 12.0467C23.6286 12.3791 23.3375 12.6537 22.9794 12.6537H20.4455C20.1724 12.6529 19.902 12.5989 19.649 12.4947C19.276 12.3357 18.8461 12.3719 18.5599 12.6393L17.2075 13.9039C17.145 13.9595 17.091 14.0243 17.0474 14.0961C16.9915 14.1891 16.9544 14.2924 16.938 14.4C16.9217 14.5077 16.9265 14.6175 16.9522 14.7232C16.9779 14.829 17.0239 14.9285 17.0876 15.0161C17.1514 15.1037 17.2315 15.1776 17.3235 15.2336C18.0725 15.6899 18.9111 15.9736 19.7799 16.0646V17.3438C19.7799 17.9797 20.3373 18.5 21.0163 18.5H22.2527C22.9325 18.5 23.4898 17.9797 23.4898 17.3438V16.0719C25.8337 15.8117 27.6068 13.8316 27.2979 11.5191C27.0737 9.85703 25.6992 8.53457 23.9838 8.07207L20.1209 7.03867C19.9897 7.00752 19.8723 6.93326 19.787 6.8274C19.7016 6.72155 19.6531 6.59005 19.649 6.45332C19.649 6.1209 19.9401 5.84629 20.2981 5.84629H22.8321C23.1061 5.84672 23.3775 5.9007 23.6314 6.00527C24.0037 6.16426 24.4343 6.12812 24.7205 5.86074L26.0729 4.59609C26.1334 4.54169 26.1854 4.47835 26.2273 4.4082C26.2836 4.31525 26.3213 4.21189 26.338 4.10409C26.3547 3.9963 26.3503 3.8862 26.3248 3.78017C26.2994 3.67414 26.2536 3.57427 26.1899 3.48634C26.1263 3.3984 26.0461 3.32414 25.954 3.26785C25.2048 2.81152 24.366 2.52782 23.4969 2.4368V1.15625C23.4969 0.520312 22.9403 0 22.2605 0H21.0241C20.3444 0 19.7878 0.520312 19.7878 1.15625V2.42812C17.4467 2.68828 15.6701 4.66836 15.979 6.98086C16.2025 8.64297 17.5812 9.96543 19.2938 10.4279ZM40.2354 23.7104C39.3955 22.9371 38.0858 22.9877 37.2031 23.7104L30.6262 29.0508C29.8189 29.7084 28.8141 30.0654 27.779 30.0625H19.3607C19.0586 30.0625 18.769 29.9407 18.5554 29.7238C18.3418 29.507 18.2218 29.2129 18.2218 28.9062C18.2218 28.5996 18.3418 28.3055 18.5554 28.0887C18.769 27.8718 19.0586 27.75 19.3607 27.75H24.9333C26.065 27.75 27.1192 26.9623 27.3 25.8277C27.3223 25.6974 27.3332 25.5654 27.3327 25.4332C27.3316 24.8206 27.0911 24.2335 26.6641 23.8008C26.2371 23.368 25.6584 23.125 25.055 23.125H13.6664C11.7457 23.1255 9.88353 23.7963 8.39201 25.0249L5.08218 27.75H1.13886C0.836819 27.75 0.547144 27.8718 0.333566 28.0887C0.119987 28.3055 0 28.5996 0 28.9062L0 35.8438C0 36.1504 0.119987 36.4445 0.333566 36.6613C0.547144 36.8782 0.836819 37 1.13886 37H26.5334C27.5681 37.0008 28.5722 36.644 29.3806 35.9883L40.145 27.2441C40.4039 27.0339 40.6145 26.7687 40.7621 26.4673C40.9096 26.1658 40.9905 25.8353 40.9992 25.4987C41.0079 25.1622 40.9441 24.8278 40.8123 24.5189C40.6805 24.21 40.4838 23.9341 40.2361 23.7104H40.2354Z" fill="#FF3D00"/>
</svg>
