<svg width="41" height="24" viewBox="0 0 41 24" fill="none" xmlns="http://www.w3.org/2000/svg">
<path d="M39.7924 1.20321C37.3075 0.331607 34.8206 6.44335e-08 32.335 6.44335e-08C24.4446 -0.00053565 16.5548 3.33964 8.66432 3.33964C6.68546 3.33964 4.70788 3.12964 2.72902 2.60464C2.50673 2.54571 2.28379 2.51786 2.06598 2.51786C0.963485 2.51786 0 3.23143 0 4.22196V21.218C0 21.8946 0.463165 22.5359 1.20692 22.7962C3.69186 23.6684 6.17873 24 8.66432 24C16.5548 24 24.4452 20.6598 32.3357 20.6598C34.3145 20.6598 36.2921 20.8698 38.271 21.3948C38.4933 21.4538 38.7162 21.4816 38.934 21.4816C40.0365 21.4816 41 20.768 41 19.7775V2.78196C40.9994 2.10482 40.5362 1.46411 39.7924 1.20321ZM3.07495 5.36893C4.36387 5.63893 5.70916 5.77446 7.09289 5.84732C6.71621 7.42179 5.06086 8.60839 3.07495 8.60839V5.36893ZM3.07495 20.6368V18.0771C5.27675 18.0771 7.0583 19.538 7.15631 21.3664C5.713 21.2695 4.36387 21.0284 3.07495 20.6368ZM20.4997 17.1429C17.6688 17.1429 15.3748 14.8398 15.3748 12C15.3748 9.15964 17.6694 6.85714 20.4997 6.85714C23.3299 6.85714 25.6246 9.15964 25.6246 12C25.6246 14.8409 23.3293 17.1429 20.4997 17.1429ZM37.9244 18.6311C36.8021 18.3959 35.6368 18.2641 34.4446 18.1789C34.8206 16.7818 36.2063 15.7211 37.9244 15.5389V18.6311ZM37.9244 5.98232C35.9455 5.77286 34.41 4.39125 34.3491 2.685C35.6009 2.80125 36.7892 3.01875 37.9244 3.36321V5.98232Z" fill="#FF3D00"/>
</svg>
