<svg width="138" height="137" viewBox="0 0 138 137" fill="none" xmlns="http://www.w3.org/2000/svg">
<path d="M137.848 68.4367C137.848 106.233 107.209 136.873 69.4117 136.873C31.6155 136.873 0.976013 106.233 0.976013 68.4367C0.976013 30.6404 31.6155 0 69.4117 0C107.209 0 137.848 30.6404 137.848 68.4367Z" fill="#FFAF00"/>
<path d="M79.5113 85.3075C82.5184 85.7265 84.0462 84.7665 84.345 81.959C84.6508 79.078 84.6995 76.1623 84.7213 73.2604C84.7302 72.1138 84.4592 70.9364 84.1455 69.8215C83.5409 67.6722 81.747 66.7807 79.5113 67.432V85.3075ZM73.3552 87.2206V65.4871C73.6729 65.4603 73.9479 65.4186 74.2229 65.4186C76.8865 65.4147 79.551 65.4018 82.2156 65.4226C86.9123 65.4593 89.6523 67.5928 90.7761 72.1773C91.5038 75.1457 91.4542 78.1517 90.659 81.0963C89.6742 84.7377 87.0592 86.9496 83.2768 87.1819C80.1487 87.3745 77.0026 87.2911 73.8645 87.3238C73.7136 87.3248 73.5627 87.2643 73.3552 87.2206Z" fill="white"/>
<path d="M63.7474 70.5873C63.6194 71.3626 63.4327 72 63.4268 72.6393C63.4158 73.7671 63.4466 74.9048 63.6055 76.0177C63.663 76.4207 64.0701 76.8536 64.4304 77.1176C65.175 77.6607 65.8957 77.4294 66.0993 76.523C66.3187 75.5451 66.413 74.5206 66.4189 73.5159C66.4497 68.4419 66.4338 63.368 66.4338 58.293V57.1047H72.4479C72.4678 57.472 72.5025 57.8095 72.5035 58.147C72.5055 62.4596 72.5552 66.7741 72.4757 71.0856C72.447 72.6185 72.2534 74.186 71.8652 75.6662C71.2616 77.9595 69.566 79.2719 67.4703 79.3851C64.7223 79.534 62.3983 78.3358 61.4313 76.2609C60.6977 74.6844 61.1444 73.09 61.4055 71.5076C61.4343 71.3289 61.7391 71.1323 61.9535 71.0588C62.4846 70.8801 63.0366 70.769 63.7474 70.5873Z" fill="white"/>
<path d="M48.3995 61.9052C48.3995 60.7059 48.3399 59.8432 48.4263 58.9954C48.465 58.6102 48.7341 58.0106 49.0041 57.9451C49.3694 57.8567 50.0892 58.0781 50.2143 58.361C50.6868 59.4342 51.1564 60.562 51.3093 61.7126C51.8255 65.6042 50.7245 69.2923 49.7298 72.9982C49.2979 74.6065 49.0468 76.2753 48.8542 77.9322C48.4541 81.3672 49.7784 84.1817 52.1789 86.5613C52.988 87.3644 53.8269 88.1428 54.5913 88.9866C55.2058 89.6646 55.0808 89.9794 54.224 90.2553C52.3358 90.8629 50.7543 90.3606 49.3794 88.9796C47.6688 87.2602 46.7525 85.1317 46.1301 82.8394C45.0271 78.7741 45.6079 74.812 46.8032 70.8688C47.7205 67.8379 48.6646 64.8011 48.3995 61.9052Z" fill="white"/>
<path d="M69.3763 36.7391C67.9804 37.1859 66.8507 37.5492 65.7199 37.9086C62.5302 38.9202 59.3266 39.8862 56.1567 40.9563C54.4095 41.546 52.8081 42.4365 51.459 43.75C50.5675 44.6196 48.3755 44.6653 47.0154 43.9376C49.5996 39.3302 64.5971 34.3337 69.3763 36.7391Z" fill="white"/>
<path d="M48.3995 61.9051C48.6646 64.801 47.7205 67.8379 46.8032 70.8687C45.6079 74.812 45.0271 78.7741 46.1301 82.8394C46.7525 85.1317 47.6688 87.2602 49.3794 88.9796C50.7543 90.3605 52.3358 90.8629 54.224 90.2553C55.0808 89.9793 55.2059 89.6646 54.5913 88.9866C53.8269 88.1427 52.988 87.3644 52.1789 86.5613C49.7785 84.1816 48.4541 81.3671 48.8542 77.9322C49.0468 76.2753 49.298 74.6065 49.7298 72.9982C50.7246 69.2922 51.8255 65.6042 51.3093 61.7125C51.1564 60.5619 50.6868 59.4342 50.2143 58.361C50.0892 58.0781 49.3694 57.8567 49.0041 57.945C48.7341 58.0106 48.465 58.6102 48.4263 58.9954C48.3399 59.8432 48.3995 60.7059 48.3995 61.9051ZM63.7475 70.5878C63.0367 70.7685 62.4838 70.8807 61.9536 71.0594C61.7392 71.1318 61.4344 71.3294 61.4056 71.5081C61.1445 73.0895 60.6978 74.6849 61.4314 76.2604C62.3984 78.3353 64.7224 79.5345 67.4704 79.3846C69.5661 79.2714 71.2617 77.959 71.8653 75.6657C72.2535 74.1855 72.4471 72.619 72.4759 71.0862C72.5553 66.7736 72.5056 62.4601 72.5037 58.1466C72.5027 57.81 72.4679 57.4725 72.4481 57.1052H66.4339V58.2925C66.4339 63.3675 66.4498 68.4415 66.419 73.5164C66.4131 74.5211 66.3188 75.5446 66.0994 76.5235C65.8959 77.4289 65.1751 77.6612 64.4306 77.1172C64.0702 76.8541 63.6632 76.4212 63.6056 76.0172C63.4467 74.9043 63.416 73.7666 63.4269 72.6398C63.4328 71.9995 63.6195 71.3621 63.7475 70.5878ZM73.3554 87.2204C73.5629 87.2641 73.7138 87.3247 73.8637 87.3237C77.0028 87.2909 80.1479 87.3743 83.2771 87.1817C87.0585 86.9494 89.6744 84.7386 90.6582 81.0961C91.4544 78.1516 91.504 75.1455 90.7763 72.1782C89.6525 67.5926 86.9125 65.4602 82.2148 65.4225C79.5512 65.4016 76.8867 65.4155 74.2231 65.4185C73.9471 65.4195 73.6731 65.4612 73.3554 65.487V87.2204ZM39.6772 62.4502C41.201 62.9952 42.7974 63.567 44.4781 64.1686C44.9398 62.5484 45.1879 60.9809 44.8583 59.4302C44.7075 58.7214 44.1773 58.0215 43.6512 57.4834C42.8083 56.6207 41.8543 55.8751 41.6706 54.4009C43.1667 54.2778 44.628 54.1011 46.0943 54.0475C61.8156 53.4697 77.5419 53.288 93.2721 53.4985C97.6403 53.5571 102.003 53.9273 106.368 54.1884C107.044 54.2291 107.711 54.4525 108.416 54.5975C108.157 55.8841 107.38 56.6644 106.564 57.4139C105.701 58.2051 104.929 59.0986 104.921 60.3108C104.913 61.4336 105.119 62.5623 105.296 63.6782C105.315 63.7924 105.826 63.9572 106.044 63.8907C107.346 63.4985 108.63 63.0448 109.914 62.4611C109.158 62.4611 108.399 62.5077 107.649 62.4502C106.184 62.338 105.944 62.0163 106.315 60.695C106.878 58.6936 108.137 57.6869 110.228 57.8557C111.543 57.9609 112.843 58.3044 114.131 58.6181C114.35 58.6717 114.6 59.1115 114.618 59.3875C114.715 60.7466 114.772 62.1116 114.757 63.4747C114.753 63.7656 114.45 64.1805 114.174 64.3215C112.205 65.3292 110.226 66.3229 108.216 67.2412C105.806 68.3412 106.161 67.6284 106.667 70.283C107.206 73.1084 107.859 75.9149 108.331 78.7512C109.208 84.0069 106.486 89.6825 101.96 92.0512C99.2297 93.4798 96.2315 93.867 93.2026 93.857C82.739 93.8213 72.2753 93.723 61.8117 93.6605C59.2424 93.6456 56.6722 93.6406 54.1039 93.6962C50.6114 93.7726 47.6629 92.7094 45.3369 89.9763C43.2958 87.5798 41.4611 85.1168 41.0531 81.8774C40.7523 79.4918 41.4055 77.2283 41.9138 74.939C42.3516 72.9664 42.7041 70.974 43.119 68.9954C43.2322 68.4524 43.0247 68.1724 42.5522 67.9659C41.0154 67.2928 39.4766 66.6217 37.9607 65.904C37.365 65.623 36.7872 65.2696 36.271 64.8616C34.7263 63.6365 34.2041 62.1474 34.7163 60.6175C35.1919 59.1969 36.8657 57.9014 38.5772 58.0364C39.9601 58.1456 41.3758 58.5615 42.6455 59.1334C43.6075 59.5672 43.2769 60.7784 43.2689 61.6401C43.267 61.9141 42.4559 62.33 41.9674 62.4154C41.212 62.5465 40.4168 62.4502 39.6772 62.4502Z" fill="#4D0303"/>
<path d="M69.3763 36.7392C64.5971 34.3337 49.5996 39.3303 47.0154 43.9377C48.3755 44.6654 50.5675 44.6197 51.459 43.75C52.8081 42.4366 54.4095 41.5461 56.1567 40.9564C59.3266 39.8862 62.5302 38.9203 65.7199 37.9087C66.8507 37.5493 67.9805 37.1859 69.3763 36.7392ZM71.6864 33.4899C71.5067 32.4971 71.2744 31.5103 71.1632 30.5106C71.0689 29.6658 71.0302 28.7971 71.1186 27.9553C71.2893 26.3192 72.3903 25.1696 74.0452 24.8946C76.8825 24.424 79.6007 24.9442 82.1749 26.1445C83.7276 26.8702 84.2388 28.2124 83.7891 30.0828C83.4714 31.4041 83.1041 32.7165 82.6832 34.0081C82.4479 34.7308 82.6157 35.1329 83.3017 35.4327C86.2621 36.7213 89.2165 38.0198 92.161 39.3422C95.5503 40.8651 98.887 42.4843 101.538 45.1915C103.554 47.2515 104.748 49.6937 104.98 52.7315C104.208 52.6709 103.501 52.6372 102.799 52.5558C98.7172 52.0793 94.636 51.5839 90.5538 51.1103C87.5417 50.7599 84.5257 50.4432 81.5137 50.0908C77.3997 49.6093 73.2897 49.0921 69.1757 48.6185C65.0012 48.138 60.8207 47.7052 56.6461 47.2257C53.6947 46.8862 50.7492 46.496 47.8007 46.1416C46.9221 46.0354 46.0385 45.9559 45.156 45.9013C44.5782 45.8646 44.4402 45.6829 44.5266 45.0644C44.9475 42.0554 47.0104 40.4015 49.405 39.0285C52.7724 37.0966 56.4893 36.1336 60.2499 35.4C64.0005 34.6703 67.7879 34.1332 71.6864 33.4899Z" fill="#4D0303"/>
<path d="M86.5953 105.245C86.6609 106.418 86.1953 107.038 85.414 107.561C85.0397 107.811 84.6883 108.3 84.5999 108.737C84.4143 109.651 83.895 110.022 83.0393 110.091C81.84 110.186 80.6428 110.314 79.4415 110.38C78.7764 110.415 78.4031 110.592 78.3247 111.356C78.2929 111.657 77.7797 112.144 77.4818 112.147C75.5301 112.167 73.5753 112.11 71.6246 112.007C70.9336 111.97 70.465 111.531 70.4065 110.772C70.3598 110.153 69.9637 110.01 69.4157 110.028C68.4974 110.057 67.5781 110.054 66.6578 110.065C65.7772 110.076 65.1885 109.755 65.127 108.776C65.0773 107.99 64.4857 107.886 63.8612 107.758C63.3867 107.662 62.7334 107.535 62.5389 107.202C62.25 106.706 62.2013 106.006 62.2569 105.413C62.2738 105.25 63.0313 105.053 63.4482 105.052C70.7112 105.03 77.9742 105.033 85.2373 105.046C85.6919 105.047 86.1466 105.177 86.5953 105.245Z" fill="#4D0303"/>
<path d="M42.4981 109.969C42.655 109.277 42.7781 108.668 42.932 108.065C43.8751 104.389 44.851 100.721 45.7484 97.0327C45.9341 96.2743 46.3103 95.9784 47.0132 95.9298C49.0335 95.7928 51.0527 95.63 53.075 95.5297C53.6994 95.4989 54.3477 95.5724 54.9582 95.7114C56.1605 95.9844 56.8643 96.9245 56.7968 98.1277C56.7839 98.37 56.5983 98.7274 56.3977 98.8127C55.5449 99.1771 54.6763 99.6129 53.7739 99.734C52.6223 99.8889 51.432 99.8085 50.2625 99.7469C49.506 99.7072 49.2677 99.9872 49.2707 100.715C49.2807 103.535 49.2578 106.355 49.23 109.175C49.2191 110.475 49.1784 110.514 47.8779 110.42C46.1177 110.291 44.3606 110.127 42.4981 109.969Z" fill="#4D0303"/>
<path d="M92.8651 99.7579C92.737 99.1463 92.6248 98.8386 92.6159 98.5288C92.5752 96.9315 93.0924 95.9367 94.6392 95.8941C96.852 95.8335 99.0678 95.8692 101.283 95.8851C103.613 95.901 103.584 95.9179 104.061 98.1744C104.888 102.074 105.757 105.966 106.606 109.861C106.633 109.981 106.641 110.106 106.674 110.362C106.151 110.386 105.665 110.444 105.18 110.423C103.883 110.369 102.586 110.244 101.288 110.222C100.482 110.208 100.189 109.928 100.205 109.091C100.251 106.459 100.22 103.825 100.218 101.191C100.217 99.7728 100.216 99.7648 98.7611 99.7599C96.8014 99.7529 94.8407 99.7579 92.8651 99.7579Z" fill="#4D0303"/>
<path d="M39.8146 50.6798C39.3828 50.798 38.942 51.0412 38.5211 51.0104C37.0478 50.9012 35.5239 50.8943 34.1221 50.4922C30.4956 49.4528 28.8675 46.5956 28.4198 42.6534C28.1527 40.2976 27.975 37.9338 27.7238 35.577C27.4776 33.2659 26.332 31.4749 24.4587 30.1288C24.3336 30.0384 24.2234 29.9282 24.0655 29.7922C25.9071 29.8409 28.4952 31.7757 29.0273 33.6789C29.4423 35.1581 29.5545 36.7197 29.8414 38.2366C30.2226 40.2479 30.5224 42.2861 31.0793 44.2497C31.6998 46.4338 33.3547 47.779 35.4018 48.6328C36.335 49.0219 37.3069 49.3207 38.256 49.6732C38.7772 49.8677 39.2894 50.0891 39.8057 50.2986L39.8146 50.6798Z" fill="#4D0303"/>
<path d="M38.7307 47.3413C35.6085 45.8482 33.2597 43.8349 33.0125 40.2779C32.801 37.2202 32.8645 34.1436 32.7821 31.076C32.7593 30.2242 32.7583 29.3476 32.5538 28.5306C32.3463 27.6987 31.9006 26.9273 31.5193 26.0388C31.6663 26.0924 31.8777 26.1311 32.0425 26.2393C33.7521 27.3651 34.3874 29.0994 34.5969 31.0085C34.7478 32.3894 34.7369 33.7892 34.7925 35.1801C34.856 36.7298 34.8749 38.2814 34.9821 39.8282C35.1608 42.4451 36.3283 44.6063 38.1758 46.427C38.3555 46.6037 38.5322 46.7854 38.699 46.974C38.7307 47.0108 38.7109 47.0922 38.7307 47.3413Z" fill="#4D0303"/>
<path d="M66.3156 101.747C66.5975 100.044 67.2478 98.706 68.4232 97.6497C69.1549 96.9915 69.6969 97.1007 69.9858 98.0229C70.37 99.25 70.648 100.516 70.8743 101.783C70.9339 102.117 70.6351 102.516 70.5001 102.885C70.2002 102.708 69.8865 102.553 69.6076 102.347C69.3822 102.181 69.2174 101.817 68.994 101.789C68.7181 101.756 68.2326 101.906 68.1522 102.103C67.9497 102.605 67.8673 103.347 67.2091 103.112C66.801 102.967 66.6065 102.222 66.3156 101.747Z" fill="#4D0303"/>
<path d="M25.217 39.6369C25.3878 42.0473 25.8196 44.3743 26.7985 46.6031C27.8339 48.9599 29.9366 50.1234 31.9122 51.5003C29.6249 51.6482 27.96 50.4837 26.5443 48.936C24.4834 46.6815 23.8281 42.1634 25.217 39.6369Z" fill="#4D0303"/>
<path d="M86.1833 101.872C85.955 102.29 85.9053 102.529 85.7663 102.607C85.4109 102.809 85.0138 102.939 84.6336 103.098C84.5264 102.714 84.2574 102.291 84.3368 101.95C84.7319 100.27 85.5321 98.7853 86.768 97.4014C87.0192 97.6884 87.2853 97.8641 87.3577 98.1003C87.8075 99.5746 88.277 101.05 88.5897 102.556C88.6692 102.944 88.2065 103.443 87.9931 103.892C87.6337 103.59 87.2436 103.318 86.9249 102.979C86.6658 102.701 86.493 102.343 86.1833 101.872Z" fill="#4D0303"/>
<path d="M71.7428 102.134C72.3851 100.82 72.9708 99.5335 73.6429 98.2945C73.9199 97.7843 74.5016 97.7336 74.8213 98.227C75.5341 99.333 76.2022 100.478 76.7741 101.661C77.0282 102.185 76.8972 102.83 76.229 103.093C75.5162 103.372 75.3028 102.806 75.0496 102.317C74.6069 101.457 74.3716 101.452 73.8563 102.273C73.7392 102.459 73.6667 102.754 73.5029 102.818C73.1475 102.957 72.7226 103.087 72.3732 103.01C72.1508 102.96 72.0128 102.532 71.7428 102.134Z" fill="#4D0303"/>
<path d="M81.2855 97.1974C81.7729 98.5356 82.3398 99.853 82.7041 101.225C82.8193 101.66 82.5056 102.349 82.1631 102.702C82.0092 102.861 81.2328 102.579 80.8576 102.324C80.3126 101.953 80.0445 102.096 79.701 102.564C79.5273 102.803 79.1768 102.916 78.9068 103.085C78.7658 102.76 78.4928 102.425 78.5127 102.11C78.5445 101.591 78.6834 101.041 78.9247 100.582C79.5303 99.4261 80.2182 98.3132 80.8735 97.1825C81.0105 97.1874 81.1475 97.1924 81.2855 97.1974Z" fill="#4D0303"/>
<path d="M64.9399 103.281C63.6275 101.576 63.1718 101.655 62.2823 103.487C62.1235 103.816 61.6519 103.993 61.3253 104.239C61.1297 103.891 60.6949 103.467 60.7783 103.208C61.2886 101.631 61.9031 100.086 62.5355 98.5514C62.5841 98.4333 63.2324 98.3906 63.2632 98.4611C63.8876 99.8907 64.4674 101.342 65.0422 102.794C65.0779 102.887 64.9975 103.026 64.9399 103.281Z" fill="#4D0303"/>
<path d="M79.5114 85.3077V67.4322C81.747 66.7809 83.541 67.6724 84.1455 69.8217C84.4593 70.9366 84.7303 72.114 84.7213 73.2606C84.6995 76.1625 84.6509 79.0782 84.3451 81.9592C84.0463 84.7667 82.5184 85.7267 79.5114 85.3077Z" fill="#4C0303"/>
</svg>
