<svg width="128" height="117" viewBox="0 0 128 117" fill="none" xmlns="http://www.w3.org/2000/svg">
<path d="M121.6 28H6.4C2.866 28 0 30.8468 0 34.3571V110.643C0 114.153 2.866 117 6.4 117H121.6C125.134 117 128 114.153 128 110.643V34.3571C128 30.8468 125.134 28 121.6 28ZM35.2 86.7797V89.9821C35.2 90.8602 34.484 91.5714 33.6 91.5714H30.4C29.516 91.5714 28.8 90.8602 28.8 89.9821V86.746C26.542 86.6307 24.346 85.848 22.526 84.4912C21.746 83.9091 21.706 82.7489 22.412 82.0794L24.762 79.8524C25.316 79.328 26.14 79.3041 26.788 79.7074C27.562 80.1882 28.44 80.4464 29.352 80.4464H34.974C36.274 80.4464 37.334 79.2704 37.334 77.8261C37.334 76.6441 36.612 75.6031 35.58 75.2971L26.58 72.6152C22.862 71.5067 20.264 67.9626 20.264 63.9953C20.264 59.1242 24.074 55.1669 28.798 55.0417V51.8393C28.798 50.9612 29.514 50.25 30.398 50.25H33.598C34.482 50.25 35.198 50.9612 35.198 51.8393V55.0755C37.456 55.1907 39.652 55.9714 41.472 57.3303C42.252 57.9123 42.292 59.0725 41.586 59.742L39.236 61.969C38.682 62.4935 37.858 62.5173 37.21 62.114C36.436 61.6313 35.558 61.375 34.646 61.375H29.024C27.724 61.375 26.664 62.5511 26.664 63.9953C26.664 65.1774 27.386 66.2183 28.418 66.5243L37.418 69.2062C41.136 70.3147 43.734 73.8588 43.734 77.8261C43.734 82.6992 39.924 86.6546 35.2 86.7797ZM83.2 83.625C83.2 84.5031 82.484 85.2143 81.6 85.2143H59.2C58.316 85.2143 57.6 84.5031 57.6 83.625V80.4464C57.6 79.5683 58.316 78.8571 59.2 78.8571H81.6C82.484 78.8571 83.2 79.5683 83.2 80.4464V83.625ZM115.2 83.625C115.2 84.5031 114.484 85.2143 113.6 85.2143H97.6C96.716 85.2143 96 84.5031 96 83.625V80.4464C96 79.5683 96.716 78.8571 97.6 78.8571H113.6C114.484 78.8571 115.2 79.5683 115.2 80.4464V83.625ZM115.2 64.5536C115.2 65.4317 114.484 66.1429 113.6 66.1429H59.2C58.316 66.1429 57.6 65.4317 57.6 64.5536V61.375C57.6 60.4969 58.316 59.7857 59.2 59.7857H113.6C114.484 59.7857 115.2 60.4969 115.2 61.375V64.5536Z" fill="#34E43B"/>
<path d="M21.64 5.296C23.352 5.296 24.824 5.64 26.056 6.328C27.288 7 28.224 7.968 28.864 9.232C29.504 10.48 29.824 11.952 29.824 13.648C29.824 15.344 29.504 16.824 28.864 18.088C28.224 19.336 27.288 20.304 26.056 20.992C24.824 21.664 23.352 22 21.64 22H15.472V5.296H21.64ZM21.64 19.192C23.16 19.192 24.344 18.72 25.192 17.776C26.056 16.832 26.488 15.456 26.488 13.648C26.488 11.84 26.056 10.464 25.192 9.52C24.344 8.576 23.16 8.104 21.64 8.104H18.64V19.192H21.64ZM35.0866 7.6C34.5426 7.6 34.0786 7.416 33.6946 7.048C33.3106 6.68 33.1186 6.2 33.1186 5.608C33.1186 5.016 33.3106 4.536 33.6946 4.168C34.0786 3.8 34.5426 3.616 35.0866 3.616C35.6306 3.616 36.0946 3.8 36.4786 4.168C36.8626 4.536 37.0546 5.016 37.0546 5.608C37.0546 6.2 36.8626 6.68 36.4786 7.048C36.0946 7.416 35.6306 7.6 35.0866 7.6ZM36.6706 9.472V22H33.5026V9.496L36.6706 9.472ZM47.4531 9.184C48.7171 9.184 49.7331 9.56 50.5011 10.312C51.2851 11.048 51.6771 12.024 51.6771 13.24V22H48.5091V15.04C48.5091 13.952 48.3411 13.176 48.0051 12.712C47.6851 12.232 47.1491 11.992 46.3971 11.992C45.5651 11.992 44.6851 12.456 43.7571 13.384V22H40.5891V12.256L40.0611 9.472H42.9651L43.4211 11.08C44.1091 10.408 44.7731 9.928 45.4131 9.64C46.0531 9.336 46.7331 9.184 47.4531 9.184ZM62.8047 9.184C64.0687 9.184 65.0847 9.56 65.8527 10.312C66.6367 11.048 67.0287 12.024 67.0287 13.24V22H63.8607V15.04C63.8607 13.952 63.6927 13.176 63.3567 12.712C63.0367 12.232 62.5007 11.992 61.7487 11.992C60.9007 11.992 60.0207 12.464 59.1087 13.408V22H55.9407V3.904H59.1087V10.768C59.7327 10.208 60.3327 9.808 60.9087 9.568C61.5007 9.312 62.1327 9.184 62.8047 9.184ZM82.3563 16.696H73.6443C73.7723 17.656 74.1243 18.392 74.7003 18.904C75.2923 19.416 76.0763 19.672 77.0523 19.672C77.7723 19.672 78.5483 19.544 79.3803 19.288C80.2283 19.016 81.0123 18.648 81.7323 18.184H81.8282V20.752C81.1883 21.248 80.4523 21.632 79.6203 21.904C78.8043 22.16 77.9403 22.288 77.0283 22.288C75.7163 22.288 74.5723 22.024 73.5963 21.496C72.6203 20.968 71.8683 20.208 71.3403 19.216C70.8123 18.224 70.5483 17.064 70.5483 15.736C70.5483 14.44 70.7963 13.296 71.2923 12.304C71.8043 11.312 72.5163 10.544 73.4283 10C74.3403 9.456 75.3963 9.184 76.5963 9.184C77.7643 9.184 78.7803 9.448 79.6443 9.976C80.5243 10.504 81.1963 11.264 81.6603 12.256C82.1243 13.248 82.3563 14.408 82.3563 15.736V16.696ZM76.5963 11.728C75.8443 11.728 75.2123 11.976 74.7003 12.472C74.2043 12.968 73.8683 13.656 73.6923 14.536H79.0923C78.9643 13.624 78.6923 12.928 78.2763 12.448C77.8603 11.968 77.3003 11.728 76.5963 11.728ZM86.9069 7.6C86.3629 7.6 85.8989 7.416 85.5149 7.048C85.1309 6.68 84.9389 6.2 84.9389 5.608C84.9389 5.016 85.1309 4.536 85.5149 4.168C85.8989 3.8 86.3629 3.616 86.9069 3.616C87.4509 3.616 87.9149 3.8 88.2989 4.168C88.6829 4.536 88.8749 5.016 88.8749 5.608C88.8749 6.2 88.6829 6.68 88.2989 7.048C87.9149 7.416 87.4509 7.6 86.9069 7.6ZM88.4909 9.472V22H85.3229V9.496L88.4909 9.472ZM99.0814 9.184V12.304H98.6734C97.4254 12.304 96.4094 12.648 95.6254 13.336V22H92.4574V12.256L91.9294 9.472H95.0974L95.4094 11.128C95.9374 10.408 96.4174 9.904 96.8494 9.616C97.2814 9.328 97.7614 9.184 98.2894 9.184H99.0814ZM107.563 22.288C106.299 22.288 105.187 22.024 104.227 21.496C103.267 20.952 102.523 20.184 101.995 19.192C101.483 18.2 101.227 17.048 101.227 15.736C101.227 14.424 101.483 13.272 101.995 12.28C102.523 11.288 103.267 10.528 104.227 10C105.187 9.456 106.299 9.184 107.563 9.184C108.827 9.184 109.939 9.456 110.899 10C111.859 10.528 112.595 11.288 113.107 12.28C113.635 13.272 113.899 14.424 113.899 15.736C113.899 17.048 113.635 18.2 113.107 19.192C112.595 20.184 111.859 20.952 110.899 21.496C109.939 22.024 108.827 22.288 107.563 22.288ZM107.563 19.672C108.507 19.672 109.243 19.336 109.771 18.664C110.299 17.976 110.563 17 110.563 15.736C110.563 14.456 110.299 13.48 109.771 12.808C109.243 12.136 108.507 11.8 107.563 11.8C106.619 11.8 105.883 12.136 105.355 12.808C104.827 13.48 104.563 14.456 104.563 15.736C104.563 17 104.827 17.976 105.355 18.664C105.883 19.336 106.619 19.672 107.563 19.672Z" fill="#34E43B"/>
</svg>
