<svg width="128" height="117" viewBox="0 0 128 117" fill="none" xmlns="http://www.w3.org/2000/svg">
<path d="M0 107.464C0 112.729 4.77778 117 10.6667 117H117.333C123.222 117 128 112.729 128 107.464V72.5H0V107.464ZM42.6667 93.9554C42.6667 92.6442 43.8667 91.5714 45.3333 91.5714H75.5556C77.0222 91.5714 78.2222 92.6442 78.2222 93.9554V101.902C78.2222 103.213 77.0222 104.286 75.5556 104.286H45.3333C43.8667 104.286 42.6667 103.213 42.6667 101.902V93.9554ZM14.2222 93.9554C14.2222 92.6442 15.4222 91.5714 16.8889 91.5714H32.8889C34.3556 91.5714 35.5556 92.6442 35.5556 93.9554V101.902C35.5556 103.213 34.3556 104.286 32.8889 104.286H16.8889C15.4222 104.286 14.2222 103.213 14.2222 101.902V93.9554ZM128 37.5357V47.0714H0V37.5357C0 32.2712 4.77778 28 10.6667 28H117.333C123.222 28 128 32.2712 128 37.5357Z" fill="#0254B5"/>
<path d="M34.1259 22.288C32.2859 22.288 30.7019 21.936 29.3739 21.232C28.0619 20.528 27.0539 19.528 26.3499 18.232C25.6619 16.92 25.3179 15.392 25.3179 13.648C25.3179 11.904 25.6699 10.384 26.3739 9.088C27.0779 7.776 28.1019 6.768 29.4459 6.064C30.7899 5.36 32.3979 5.008 34.2699 5.008C35.0539 5.008 35.8219 5.088 36.5739 5.248C37.3419 5.392 38.0299 5.616 38.6379 5.92V8.848H38.5419C37.9339 8.496 37.2699 8.232 36.5499 8.056C35.8459 7.88 35.1739 7.792 34.5339 7.792C32.7099 7.792 31.2699 8.296 30.2139 9.304C29.1739 10.312 28.6539 11.76 28.6539 13.648C28.6539 15.52 29.1659 16.96 30.1899 17.968C31.2139 18.976 32.6139 19.48 34.3899 19.48C35.0779 19.48 35.7739 19.376 36.4779 19.168C37.1979 18.944 37.8859 18.632 38.5419 18.232H38.6379V21.184C37.3579 21.92 35.8539 22.288 34.1259 22.288ZM50.4873 22L50.1753 20.488C49.0393 21.688 47.6713 22.288 46.0713 22.288C44.8073 22.288 43.7753 21.96 42.9753 21.304C42.1913 20.648 41.7993 19.784 41.7993 18.712C41.7993 17.32 42.3113 16.24 43.3353 15.472C44.3753 14.688 45.8713 14.296 47.8233 14.296C48.5273 14.296 49.2313 14.328 49.9353 14.392V13.936C49.9353 13.232 49.7353 12.712 49.3353 12.376C48.9353 12.024 48.3033 11.848 47.4393 11.848C46.5913 11.848 45.7993 11.992 45.0633 12.28C44.3433 12.552 43.5593 13 42.7113 13.624V10.792C43.4473 10.232 44.2153 9.824 45.0153 9.568C45.8153 9.312 46.6953 9.184 47.6553 9.184C49.4313 9.184 50.7833 9.568 51.7113 10.336C52.6553 11.088 53.1273 12.192 53.1273 13.648V19.216L53.6553 22H50.4873ZM44.9673 18.472C44.9673 19.4 45.4953 19.864 46.5513 19.864C47.1593 19.864 47.7353 19.744 48.2793 19.504C48.8233 19.248 49.3753 18.848 49.9353 18.304V16.6H47.6313C46.7033 16.6 46.0233 16.736 45.5913 17.008C45.1753 17.28 44.9673 17.768 44.9673 18.472ZM63.4252 9.184V12.304H63.0172C61.7692 12.304 60.7532 12.648 59.9692 13.336V22H56.8012V12.256L56.2732 9.472H59.4412L59.7532 11.128C60.2812 10.408 60.7612 9.904 61.1932 9.616C61.6252 9.328 62.1052 9.184 62.6332 9.184H63.4252ZM70.3353 9.472H73.2153V11.824H70.3353V17.872C70.3353 19.088 70.7993 19.696 71.7273 19.696C72.1593 19.696 72.6633 19.544 73.2393 19.24V21.856C72.8393 22 72.4633 22.104 72.1113 22.168C71.7753 22.248 71.3913 22.288 70.9593 22.288C68.4313 22.288 67.1673 20.816 67.1673 17.872V11.824H65.3433V9.472H67.1673V6.112L70.3353 5.008V9.472ZM84.0967 22L83.7847 20.488C82.6487 21.688 81.2807 22.288 79.6807 22.288C78.4167 22.288 77.3847 21.96 76.5847 21.304C75.8007 20.648 75.4087 19.784 75.4087 18.712C75.4087 17.32 75.9207 16.24 76.9447 15.472C77.9847 14.688 79.4807 14.296 81.4327 14.296C82.1367 14.296 82.8407 14.328 83.5447 14.392V13.936C83.5447 13.232 83.3447 12.712 82.9447 12.376C82.5447 12.024 81.9127 11.848 81.0487 11.848C80.2007 11.848 79.4087 11.992 78.6727 12.28C77.9527 12.552 77.1687 13 76.3207 13.624V10.792C77.0567 10.232 77.8247 9.824 78.6247 9.568C79.4247 9.312 80.3047 9.184 81.2647 9.184C83.0407 9.184 84.3927 9.568 85.3207 10.336C86.2647 11.088 86.7367 12.192 86.7367 13.648V19.216L87.2647 22H84.0967ZM78.5767 18.472C78.5767 19.4 79.1047 19.864 80.1607 19.864C80.7687 19.864 81.3447 19.744 81.8887 19.504C82.4327 19.248 82.9847 18.848 83.5447 18.304V16.6H81.2407C80.3127 16.6 79.6327 16.736 79.2007 17.008C78.7847 17.28 78.5767 17.768 78.5767 18.472ZM82.9207 7.456C82.6167 7.456 82.3287 7.408 82.0567 7.312C81.8007 7.2 81.4967 7.048 81.1447 6.856C80.7447 6.648 80.4327 6.504 80.2087 6.424C80.0007 6.344 79.7607 6.304 79.4887 6.304C78.7367 6.304 78.0087 6.688 77.3047 7.456V5.008C78.0407 4.16 78.8087 3.736 79.6087 3.736C79.9127 3.736 80.1927 3.792 80.4487 3.904C80.7207 4 81.0327 4.144 81.3847 4.336C81.7847 4.544 82.0887 4.688 82.2967 4.768C82.5207 4.848 82.7687 4.888 83.0407 4.888C83.7927 4.888 84.5207 4.592 85.2247 4V6.448C84.4887 7.12 83.7207 7.456 82.9207 7.456ZM95.9066 22.288C94.6426 22.288 93.5306 22.024 92.5706 21.496C91.6106 20.952 90.8666 20.184 90.3386 19.192C89.8266 18.2 89.5706 17.048 89.5706 15.736C89.5706 14.424 89.8266 13.272 90.3386 12.28C90.8666 11.288 91.6106 10.528 92.5706 10C93.5306 9.456 94.6426 9.184 95.9066 9.184C97.1706 9.184 98.2826 9.456 99.2426 10C100.203 10.528 100.939 11.288 101.451 12.28C101.979 13.272 102.243 14.424 102.243 15.736C102.243 17.048 101.979 18.2 101.451 19.192C100.939 20.184 100.203 20.952 99.2426 21.496C98.2826 22.024 97.1706 22.288 95.9066 22.288ZM95.9066 19.672C96.8506 19.672 97.5866 19.336 98.1146 18.664C98.6426 17.976 98.9066 17 98.9066 15.736C98.9066 14.456 98.6426 13.48 98.1146 12.808C97.5866 12.136 96.8506 11.8 95.9066 11.8C94.9626 11.8 94.2266 12.136 93.6986 12.808C93.1706 13.48 92.9066 14.456 92.9066 15.736C92.9066 17 93.1706 17.976 93.6986 18.664C94.2266 19.336 94.9626 19.672 95.9066 19.672Z" fill="#0254B5"/>
</svg>
